Coordinates
version=1
nRows=27
nColumns=12
inDegrees=yes

Units are S.I. units (second, meters, Newtons, ...)
Angles are in degrees

endheader
time	SC_y	SC_z	SC_x	AC_y	AC_z	AC_x	GH_y	GH_z	GH_yy	EL_x	PS_y
       0.0              -52.53          24.36          78.69          35.97         -1.994         -13.38         -121.5          42.96         -68.16          36.03          80.33
  0.007577              -52.53          24.35          78.69          35.97         -1.996         -13.38         -121.5          42.96         -68.13          36.04          80.32
   0.01515              -52.53          24.35          78.68          35.98         -1.999         -13.37         -121.5          42.96          -68.1          36.05          80.31
   0.02273              -52.53          24.35          78.68          35.98         -2.001         -13.37         -121.5          42.97         -68.06          36.06           80.3
   0.03031              -52.52          24.35          78.67          35.98         -2.004         -13.37         -121.4          42.97         -68.02          36.07          80.28
   0.03788              -52.52          24.35          78.66          35.99         -2.007         -13.37         -121.4          42.97         -67.98          36.09          80.27
   0.04546              -52.52          24.34          78.66          35.99          -2.01         -13.37         -121.4          42.98         -67.94           36.1          80.26
   0.05304              -52.51          24.34          78.65          35.99         -2.013         -13.37         -121.3          42.98         -67.89          36.12          80.25
   0.06062              -52.51          24.34          78.64           36.0         -2.016         -13.36         -121.3          42.99         -67.84          36.13          80.23
   0.06819               -52.5          24.33          78.63           36.0          -2.02         -13.36         -121.3          42.99         -67.79          36.15          80.21
   0.07577               -52.5          24.33          78.62          36.01         -2.024         -13.36         -121.2           43.0         -67.73          36.17           80.2
   0.08335               -52.5          24.33          78.61          36.01         -2.028         -13.36         -121.2           43.0         -67.67          36.19          80.18
   0.09092              -52.49          24.32           78.6          36.02         -2.033         -13.35         -121.1          43.01         -67.61          36.21          80.16
    0.0985              -52.48          24.32          78.59          36.03         -2.038         -13.35         -121.1          43.01         -67.54          36.24          80.14
    0.1061              -52.48          24.32          78.58          36.03         -2.044         -13.35         -121.0          43.02         -67.46          36.26          80.11
    0.1137              -52.47          24.31          78.57          36.04         -2.049         -13.34         -121.0          43.03         -67.37          36.29          80.09
    0.1212              -52.46          24.31          78.55          36.05         -2.056         -13.34         -120.9          43.04         -67.28          36.32          80.06
    0.1288              -52.46           24.3          78.54          36.06         -2.063         -13.33         -120.8          43.05         -67.18          36.36          80.03
    0.1364              -52.45          24.29          78.52          36.07          -2.07         -13.33         -120.8          43.06         -67.08          36.39           80.0
     0.144              -52.44          24.29           78.5          36.08         -2.079         -13.32         -120.7          43.07         -66.96          36.43          79.97
    0.1515              -52.43          24.28          78.48          36.09         -2.088         -13.32         -120.6          43.08         -66.83          36.48          79.93
    0.1591              -52.42          24.27          78.46           36.1         -2.098         -13.31         -120.5          43.09         -66.68          36.52          79.88
    0.1667               -52.4          24.26          78.43          36.11         -2.109         -13.31         -120.4          43.11         -66.53          36.58          79.84
    0.1743              -52.39          24.25           78.4          36.13         -2.121          -13.3         -120.2          43.12         -66.35          36.64          79.78
    0.1818              -52.37          24.24          78.37          36.15         -2.135         -13.29         -120.1          43.14         -66.16           36.7          79.73
    0.1894              -52.36          24.23          78.34          36.17          -2.15         -13.28         -119.9          43.16         -65.94          36.78          79.66
     0.197              -52.34          24.22           78.3          36.19         -2.167         -13.27         -119.8          43.18         -65.69          36.86          79.59
